<svg width="374" height="213" viewBox="0 0 374 213" fill="none" xmlns="http://www.w3.org/2000/svg">
<g filter="url(#filter0_d_6_461)">
<ellipse cx="193.009" cy="114.97" rx="64.6705" ry="78.9611" transform="rotate(21.0311 193.009 114.97)" fill="white"/>
</g>
<path d="M113.309 0.0605469H263.309V212.061H113.309V0.0605469Z" fill="url(#paint0_linear_6_461)"/>
<path d="M22.7701 170.621C22.0981 172.093 21.4421 173.597 20.8021 175.132C20.1941 176.636 19.5701 178.125 18.9301 179.597C16.5941 174.029 14.2421 168.492 11.8741 162.989C9.50613 157.485 7.15413 151.933 4.81813 146.332H0.786133V144.461H10.4341V146.332H6.83413C8.78613 150.972 10.7221 155.58 12.6421 160.156C14.5621 164.701 16.5141 169.26 18.4981 173.836L18.9301 175.229C19.3461 174.109 19.8101 172.892 20.3221 171.58C20.8661 170.268 21.4101 168.989 21.9541 167.74C22.7541 165.789 23.5701 163.852 24.4021 161.933C25.2341 159.981 26.0501 158.045 26.8501 156.125C26.1781 154.492 25.4901 152.877 24.7861 151.276C24.1141 149.644 23.4261 147.996 22.7221 146.332H18.6901V144.461H28.2901V146.332H24.7381C26.6581 150.972 28.5781 155.58 30.4981 160.156C32.4181 164.701 34.3701 169.26 36.3541 173.836L36.7861 175.229L37.2181 173.836C39.1701 169.26 41.1061 164.701 43.0261 160.156C44.9781 155.58 46.9301 150.972 48.8821 146.332H45.5701V144.461H55.2181V146.332H50.8981C48.5621 151.933 46.2101 157.485 43.8421 162.989C41.5061 168.492 39.1541 174.029 36.7861 179.597L28.2901 159.58L27.8581 158.284C27.0901 160.204 26.2741 162.237 25.4101 164.38C24.5461 166.492 23.6661 168.572 22.7701 170.621Z" fill="black"/>
<path d="M74.807 175.66C73.943 176.524 72.919 177.197 71.735 177.677C70.583 178.156 69.351 178.397 68.039 178.397C66.695 178.397 65.447 178.156 64.295 177.677C63.175 177.197 62.199 176.524 61.367 175.66C60.503 174.828 59.831 173.852 59.351 172.733C58.871 171.581 58.631 170.349 58.631 169.037C58.631 167.757 58.871 166.54 59.351 165.388C59.831 164.237 60.503 163.228 61.367 162.364C62.199 161.532 63.191 160.876 64.343 160.396C65.495 159.884 66.727 159.629 68.039 159.629C69.351 159.629 70.583 159.884 71.735 160.396C72.919 160.876 73.943 161.532 74.807 162.364C75.639 163.228 76.295 164.237 76.775 165.388C77.287 166.54 77.543 167.757 77.543 169.037C77.543 170.349 77.287 171.565 76.775 172.684C76.295 173.804 75.639 174.796 74.807 175.66ZM62.759 174.268C63.431 174.972 64.215 175.516 65.111 175.901C66.007 176.285 66.967 176.476 67.991 176.476C69.015 176.476 69.975 176.285 70.871 175.901C71.799 175.516 72.599 174.972 73.271 174.268C73.975 173.628 74.519 172.86 74.903 171.964C75.287 171.069 75.479 170.093 75.479 169.037C75.479 168.044 75.287 167.1 74.903 166.205C74.519 165.277 73.975 164.461 73.271 163.757C72.599 163.085 71.799 162.556 70.871 162.172C69.975 161.788 69.015 161.597 67.991 161.597C66.967 161.597 66.007 161.788 65.111 162.172C64.215 162.556 63.431 163.085 62.759 163.757C62.087 164.461 61.559 165.261 61.175 166.156C60.791 167.052 60.599 168.013 60.599 169.037C60.599 170.093 60.791 171.069 61.175 171.964C61.559 172.86 62.087 173.628 62.759 174.268Z" fill="black"/>
<path d="M90.1595 178.06H80.8955V176.188H84.6395V161.933H81.1835V160.06H86.2235L86.3675 162.604C86.3995 163.149 86.4155 163.5 86.4155 163.66C86.4155 163.821 86.4315 164.172 86.4635 164.716C86.8155 163.916 87.2635 163.212 87.8075 162.604C88.3835 161.964 89.0235 161.436 89.7275 161.02C90.3995 160.604 91.0875 160.284 91.7915 160.06C92.5275 159.836 93.2635 159.709 93.9995 159.677L93.9035 161.644C92.9435 161.644 92.0315 161.804 91.1675 162.125C90.3355 162.412 89.5995 162.828 88.9595 163.373C88.2235 163.917 87.6475 164.621 87.2315 165.485C86.8155 166.317 86.6075 167.228 86.6075 168.22V176.188H90.1595V178.06Z" fill="black"/>
<path d="M97.3486 178.06V176.188H100.901V143.933H97.4926V142.06H102.869V168.94L110.357 161.933H107.429V160.06H116.309V161.933H112.805C111.845 162.893 110.949 163.772 110.117 164.572C109.317 165.341 108.405 166.204 107.381 167.164C108.469 168.7 109.557 170.22 110.645 171.724C111.733 173.196 112.837 174.684 113.957 176.188H118.133V178.06H109.253V176.188H111.605C110.645 174.877 109.685 173.597 108.725 172.349C107.765 171.069 106.837 169.772 105.941 168.461L102.869 171.388V176.188H106.613V178.06H97.3486Z" fill="black"/>
<path d="M131.569 178.06H125.665V161.981H121.489V160.06H125.665V148.349H127.633V160.06H133.201V161.981H127.633V176.188H131.569V178.06Z" fill="black"/>
<path d="M145.847 178.06H136.583V176.188H140.279V161.933H136.583V160.06H142.247V176.188H145.847V178.06ZM142.871 153.677C142.871 154.125 142.711 154.509 142.391 154.828C142.071 155.116 141.703 155.261 141.287 155.261C140.903 155.261 140.551 155.116 140.231 154.828C139.911 154.509 139.751 154.125 139.751 153.677C139.751 153.229 139.911 152.86 140.231 152.573C140.551 152.252 140.903 152.093 141.287 152.093C141.703 152.093 142.071 152.252 142.391 152.573C142.711 152.86 142.871 153.229 142.871 153.677Z" fill="black"/>
<path d="M158.456 178.06H149.192V176.188H152.936V161.933H149.48V160.06H154.52L154.568 161.789C154.6 162.333 154.632 162.828 154.664 163.276C154.696 163.692 154.728 164.172 154.76 164.716C155.4 163.212 156.408 162.012 157.784 161.116C159.192 160.188 160.808 159.709 162.632 159.677C164.264 159.677 165.592 160.125 166.616 161.02C167.64 161.884 168.232 163.036 168.392 164.476C169.096 163.036 170.12 161.884 171.464 161.02C172.84 160.156 174.408 159.709 176.168 159.677C177.96 159.677 179.352 160.172 180.344 161.164C181.368 162.156 181.912 163.452 181.976 165.052V176.188H185.528V178.06H176.312V176.188H180.008V165.58C179.944 164.524 179.56 163.628 178.856 162.892C178.184 162.124 177.176 161.708 175.832 161.644C174.872 161.644 173.944 161.804 173.048 162.125C172.184 162.445 171.416 162.876 170.744 163.42C170.072 163.996 169.528 164.684 169.112 165.485C168.696 166.253 168.472 167.1 168.44 168.028V176.188H171.992V178.06H162.728V176.188H166.472V165.58C166.408 164.524 166.024 163.628 165.32 162.892C164.648 162.124 163.64 161.708 162.296 161.644C161.304 161.644 160.36 161.804 159.464 162.125C158.568 162.445 157.8 162.892 157.16 163.468C156.456 164.076 155.896 164.78 155.48 165.58C155.096 166.38 154.904 167.26 154.904 168.22V176.188H158.456V178.06Z" fill="black"/>
<path d="M198.303 161.597C197.087 161.597 195.967 161.852 194.943 162.364C193.951 162.876 193.119 163.565 192.447 164.429C191.807 165.261 191.359 166.205 191.103 167.261C190.847 168.285 190.831 169.341 191.055 170.429C193.231 169.565 195.391 168.716 197.535 167.884C199.711 167.02 201.888 166.156 204.063 165.293C203.487 164.205 202.687 163.324 201.663 162.653C200.671 161.949 199.551 161.597 198.303 161.597ZM204.591 175.901C203.759 176.669 202.815 177.276 201.759 177.724C200.703 178.172 199.551 178.397 198.303 178.397C196.991 178.397 195.759 178.156 194.607 177.677C193.487 177.197 192.495 176.524 191.631 175.66C190.767 174.796 190.095 173.804 189.615 172.684C189.136 171.565 188.895 170.349 188.895 169.037C188.895 167.757 189.136 166.54 189.615 165.388C190.095 164.237 190.767 163.244 191.631 162.412C192.495 161.58 193.487 160.924 194.607 160.444C195.759 159.933 196.991 159.677 198.303 159.677C199.295 159.677 200.239 159.852 201.135 160.205C202.031 160.524 202.832 161.004 203.535 161.644C204.207 162.22 204.8 162.925 205.311 163.757C205.823 164.557 206.239 165.436 206.559 166.397C204.063 167.389 201.567 168.364 199.071 169.324C196.607 170.285 194.127 171.276 191.631 172.3C192.207 173.548 193.087 174.556 194.271 175.324C195.455 176.093 196.799 176.476 198.303 176.476C199.295 176.476 200.223 176.3 201.087 175.948C201.951 175.596 202.719 175.1 203.391 174.46L204.591 175.901Z" fill="black"/>
<path d="M242.474 178.06H232.826V176.188H236.762V146.332H226.346V151.852H224.474V144.461H251.018V151.852H249.146V146.332H238.73V176.188H242.474V178.06Z" fill="black"/>
<path d="M263.644 178.06H254.38V176.188H258.124V161.933H254.668V160.06H259.708L259.852 162.604C259.884 163.149 259.9 163.5 259.9 163.66C259.9 163.821 259.916 164.172 259.948 164.716C260.3 163.916 260.748 163.212 261.292 162.604C261.868 161.964 262.508 161.436 263.212 161.02C263.884 160.604 264.572 160.284 265.276 160.06C266.012 159.836 266.748 159.709 267.484 159.677L267.388 161.644C266.428 161.644 265.516 161.804 264.652 162.125C263.82 162.412 263.084 162.828 262.444 163.373C261.708 163.917 261.132 164.621 260.716 165.485C260.3 166.317 260.092 167.228 260.092 168.22V176.188H263.644V178.06Z" fill="black"/>
<path d="M293.297 178.06H287.969V176.093C287.969 175.709 287.969 175.357 287.969 175.037C287.969 174.684 287.969 174.3 287.969 173.884C287.745 174.46 287.393 175.02 286.913 175.565C286.465 176.076 285.921 176.541 285.281 176.957C284.609 177.404 283.841 177.757 282.977 178.013C282.145 178.268 281.249 178.397 280.289 178.397C278.945 178.397 277.697 178.156 276.545 177.677C275.425 177.197 274.433 176.524 273.569 175.66C272.705 174.796 272.033 173.804 271.553 172.684C271.073 171.565 270.833 170.349 270.833 169.037C270.833 167.789 271.073 166.588 271.553 165.436C272.033 164.285 272.705 163.276 273.569 162.412C274.433 161.58 275.425 160.924 276.545 160.444C277.697 159.933 278.945 159.677 280.289 159.677C282.177 159.677 283.793 160.141 285.137 161.069C286.481 161.964 287.425 163.037 287.969 164.285C287.969 163.613 287.985 162.924 288.017 162.22C288.049 161.484 288.097 160.764 288.161 160.06H289.745V176.188H293.297V178.06ZM280.289 161.597C279.201 161.597 278.193 161.788 277.265 162.172C276.337 162.556 275.553 163.1 274.913 163.804C274.241 164.476 273.713 165.261 273.329 166.156C272.977 167.052 272.801 168.013 272.801 169.037C272.801 170.125 273.009 171.132 273.425 172.06C273.841 172.988 274.417 173.789 275.153 174.46C275.825 175.1 276.593 175.596 277.457 175.948C278.321 176.3 279.265 176.476 280.289 176.476C281.313 176.476 282.273 176.3 283.169 175.948C284.065 175.564 284.849 175.036 285.521 174.364C286.225 173.692 286.769 172.908 287.153 172.013C287.569 171.085 287.777 170.093 287.777 169.037C287.777 167.981 287.569 167.004 287.153 166.108C286.769 165.181 286.241 164.38 285.569 163.709C284.865 163.037 284.065 162.524 283.169 162.172C282.273 161.788 281.313 161.597 280.289 161.597Z" fill="black"/>
<path d="M312.021 176.332C311.189 176.972 310.277 177.485 309.285 177.869C308.293 178.221 307.221 178.397 306.069 178.397C304.757 178.397 303.525 178.156 302.373 177.677C301.253 177.197 300.277 176.524 299.445 175.66C298.549 174.828 297.861 173.852 297.381 172.733C296.901 171.581 296.661 170.349 296.661 169.037C296.661 167.757 296.901 166.54 297.381 165.388C297.861 164.237 298.533 163.244 299.397 162.412C300.261 161.58 301.253 160.924 302.373 160.444C303.525 159.933 304.757 159.677 306.069 159.677C307.221 159.677 308.309 159.868 309.333 160.252C310.357 160.604 311.269 161.101 312.069 161.74V166.444H310.245V162.892C309.669 162.476 309.029 162.156 308.325 161.933C307.621 161.709 306.869 161.597 306.069 161.597C305.045 161.597 304.085 161.788 303.189 162.172C302.293 162.524 301.525 163.02 300.885 163.66C300.149 164.364 299.589 165.181 299.205 166.108C298.821 167.004 298.629 167.981 298.629 169.037C298.629 170.093 298.821 171.085 299.205 172.013C299.589 172.908 300.133 173.692 300.837 174.364C301.477 175.004 302.245 175.516 303.141 175.901C304.069 176.285 305.045 176.476 306.069 176.476C306.965 176.476 307.813 176.332 308.613 176.044C309.413 175.757 310.133 175.356 310.773 174.845L312.021 176.332Z" fill="black"/>
<path d="M315.411 178.06V176.188H318.963V143.933H315.555V142.06H320.931V168.94L328.419 161.933H325.491V160.06H334.371V161.933H330.867C329.907 162.893 329.011 163.772 328.179 164.572C327.379 165.341 326.467 166.204 325.443 167.164C326.531 168.7 327.619 170.22 328.707 171.724C329.795 173.196 330.899 174.684 332.019 176.188H336.195V178.06H327.315V176.188H329.667C328.707 174.877 327.747 173.597 326.787 172.349C325.827 171.069 324.899 169.772 324.003 168.461L320.931 171.388V176.188H324.675V178.06H315.411Z" fill="black"/>
<path d="M348.96 161.597C347.744 161.597 346.624 161.852 345.6 162.364C344.608 162.876 343.776 163.565 343.104 164.429C342.464 165.261 342.016 166.205 341.76 167.261C341.504 168.285 341.488 169.341 341.712 170.429C343.888 169.565 346.048 168.716 348.192 167.884C350.368 167.02 352.544 166.156 354.72 165.293C354.144 164.205 353.344 163.324 352.32 162.653C351.328 161.949 350.208 161.597 348.96 161.597ZM355.248 175.901C354.416 176.669 353.472 177.276 352.416 177.724C351.36 178.172 350.208 178.397 348.96 178.397C347.648 178.397 346.416 178.156 345.264 177.677C344.144 177.197 343.152 176.524 342.288 175.66C341.424 174.796 340.752 173.804 340.272 172.684C339.792 171.565 339.552 170.349 339.552 169.037C339.552 167.757 339.792 166.54 340.272 165.388C340.752 164.237 341.424 163.244 342.288 162.412C343.152 161.58 344.144 160.924 345.264 160.444C346.416 159.933 347.648 159.677 348.96 159.677C349.952 159.677 350.896 159.852 351.792 160.205C352.688 160.524 353.488 161.004 354.192 161.644C354.864 162.22 355.456 162.925 355.968 163.757C356.48 164.557 356.896 165.436 357.216 166.397C354.72 167.389 352.224 168.364 349.728 169.324C347.264 170.285 344.784 171.276 342.288 172.3C342.864 173.548 343.744 174.556 344.928 175.324C346.112 176.093 347.456 176.476 348.96 176.476C349.952 176.476 350.88 176.3 351.744 175.948C352.608 175.596 353.376 175.1 354.048 174.46L355.248 175.901Z" fill="black"/>
<path d="M370.003 178.06H360.739V176.188H364.483V161.933H361.027V160.06H366.067L366.211 162.604C366.243 163.149 366.259 163.5 366.259 163.66C366.259 163.821 366.275 164.172 366.307 164.716C366.659 163.916 367.107 163.212 367.651 162.604C368.227 161.964 368.867 161.436 369.571 161.02C370.243 160.604 370.931 160.284 371.635 160.06C372.371 159.836 373.107 159.709 373.843 159.677L373.747 161.644C372.787 161.644 371.875 161.804 371.011 162.125C370.179 162.412 369.443 162.828 368.803 163.373C368.067 163.917 367.491 164.621 367.075 165.485C366.659 166.317 366.451 167.228 366.451 168.22V176.188H370.003V178.06Z" fill="black"/>
<g filter="url(#filter1_d_6_461)">
<path d="M222.931 67.7012L194.771 114.129M193.734 115.225L154.499 110.142" stroke="black" stroke-width="3" stroke-linecap="round"/>
</g>
<defs>
<filter id="filter0_d_6_461" x="122.31" y="37.6807" width="141.398" height="162.579" filterUnits="userSpaceOnUse" color-interpolation-filters="sRGB">
<feFlood flood-opacity="0" result="BackgroundImageFix"/>
<feColorMatrix in="SourceAlpha" type="matrix" values="0 0 0 0 0 0 0 0 0 0 0 0 0 0 0 0 0 0 127 0" result="hardAlpha"/>
<feOffset dy="4"/>
<feGaussianBlur stdDeviation="2"/>
<feComposite in2="hardAlpha" operator="out"/>
<feColorMatrix type="matrix" values="0 0 0 0 0 0 0 0 0 0 0 0 0 0 0 0 0 0 0.25 0"/>
<feBlend mode="normal" in2="BackgroundImageFix" result="effect1_dropShadow_6_461"/>
<feBlend mode="normal" in="SourceGraphic" in2="effect1_dropShadow_6_461" result="shape"/>
</filter>
<filter id="filter1_d_6_461" x="148.999" y="66.2009" width="79.4323" height="58.5244" filterUnits="userSpaceOnUse" color-interpolation-filters="sRGB">
<feFlood flood-opacity="0" result="BackgroundImageFix"/>
<feColorMatrix in="SourceAlpha" type="matrix" values="0 0 0 0 0 0 0 0 0 0 0 0 0 0 0 0 0 0 127 0" result="hardAlpha"/>
<feOffset dy="4"/>
<feGaussianBlur stdDeviation="2"/>
<feComposite in2="hardAlpha" operator="out"/>
<feColorMatrix type="matrix" values="0 0 0 0 0 0 0 0 0 0 0 0 0 0 0 0 0 0 0.25 0"/>
<feBlend mode="normal" in2="BackgroundImageFix" result="effect1_dropShadow_6_461"/>
<feBlend mode="normal" in="SourceGraphic" in2="effect1_dropShadow_6_461" result="shape"/>
</filter>
<linearGradient id="paint0_linear_6_461" x1="187.315" y1="110.798" x2="187.315" y2="212.061" gradientUnits="userSpaceOnUse">
<stop stop-color="#EEEEEE" stop-opacity="0"/>
<stop offset="0.37" stop-color="#EEEEEE"/>
</linearGradient>
</defs>
</svg>
